<svg xmlns="http://www.w3.org/2000/svg" viewBox="0 0 452.35 285.25"><title>FINAL</title><path d="M270,45.83l-1.12-1.5V34.75l1.12-.61ZM72,141.51l-3,1.14v.14c1,.45,2,.9,3,1.36ZM231,233v27.69c1,0,2,0,3,0V248.44a5.91,5.91,0,0,1-.39-4.35,3.62,3.62,0,0,1,.4-.79V231c-.47.36-.94.71-1.43,1S231.53,232.73,231,233Zm-18-12.27v11.73l1,.23a4.06,4.06,0,0,0,2,.09v-4a14.77,14.77,0,0,1-2-2.93A17.2,17.2,0,0,1,213,220.78Zm-53.8.39a5.93,5.93,0,0,0,1.26,5.15,10.84,10.84,0,0,0,1.53,1.56V216.68c-.07.13-.13.26-.21.38C160.94,218.44,159.66,219.61,159.2,221.17Zm53.8-1.52a2.93,2.93,0,0,0,0-.94ZM72,132.78a6.62,6.62,0,0,0-.67,1.73l.67.32Zm219,87.07v-4.77a14.65,14.65,0,0,0-1.32,2.85Zm-93-15.33c-1-.54-2-1-3-1.55v11l.77.53c.75.52,1.48,1.13,2.23,1.66v-6.89a21.51,21.51,0,0,1,2.74,1.11l.26.11V201a19,19,0,0,0-3-.66Zm111,.12V211l-3,1.5v9.37h3v-5.85l3-1.14v-11l-.94-.49C310.3,203.88,309.63,204.27,309,204.65Zm36-35.75v20.78c1,.21,2,.34,3,.48v.1a3.61,3.61,0,0,1,3,1V179.31a7.48,7.48,0,0,1-3-.25v.46l-.6,0C347.92,175.32,347.48,171.74,345,168.9Zm21,28.44c1,.68,2,1.38,3,2.07v-8.6c-1-.71-2-1.45-3-2.23v4.28q-1.52-1.14-3-2.33v8.74a7,7,0,0,1,3,2.8ZM255,218.22v1.31a14,14,0,0,1-3-1V203h-3v19c-1-.26-2-.57-3-.89v6.78q1.52.52,3,1.15v-3c1-.95,2-1.94,3-2.93v7.79l3-.5v-.73l2.13-2.13.87.46V219a6.47,6.47,0,0,0-1.1-.33C256.25,218.54,255.62,218.38,255,218.22Zm-18-7.15a11,11,0,0,0-2.22.81c-.15-.15-.42-.29-.42-.44,0-1.24,0-2.48,0-3.69l-.33-.21V222c1,.36,2,.79,3,1.21v-3.62l3,1.52v-9.64l-3-1.49Zm-54,50.18c1-.05,2-.12,3-.2v-10.8c-1-.65-2-1.31-3-2ZM60,165.32c1-.35,2-.71,3-1V151.45c-1,.43-2,.94-3,1.44Zm273,16.46c1,1.07,2,2.15,3,3.24v19.49c-1-.9-2-1.81-3-2.7v-14c-.72.06-1.43.11-2.12.11-.27,0-.57,0-.88,0v12.58c-1,2-2.05,4-3,6.12v.4a3,3,0,0,1-1.84,1,2.61,2.61,0,0,0-1.16.35v-22.5a13.91,13.91,0,0,1,2.89,2.3l.11.1v-22c1,.16,2,.31,3,.44v5.73c1,.33,2,.67,3,1.05ZM327.9,189l-.9-.4v2C327.29,190.13,327.58,189.6,327.9,189Zm2.1,35.25c.85,1.25,1.7,2.49,2.57,3.7l.43.6V211.72q-1.54-2.37-3-4.78Zm18,25,.67.92a9.84,9.84,0,0,0,2.33,2.5V238.05q-1.47-2.32-3-4.59Zm39-46.4-.11-.13a22.14,22.14,0,0,0-2.89-2.54v12l-2.67-3.18-.33-.37v10.85a19,19,0,0,0,3,.29v-7.49c.68.43,1.2.64,1.4.44a5,5,0,0,0-.53,5.9,6.89,6.89,0,0,0,2.13,2.24Zm15,11.21v7.61l.2-.1c1.77-1,3-3.2,2.26-5.07A5.54,5.54,0,0,0,402,214.13Zm-36,36.12v11.21c1,0,2,0,3-.06V250.59c-.28-.06-.56-.11-.84-.15C367.45,250.34,366.73,250.3,366,250.25ZM78,230.84q1.49-.28,3-.52V217.55a26.42,26.42,0,0,1-3,1.18Zm-18,3.24q1.51-.17,3-.39V223c-1,0-2,.1-3,.06Zm72,26.46q1.5,0,3,0V246.27a4.25,4.25,0,0,1-.47-.67c-.9-1.65-.27-3.15-.21-4.87,0-1-.9-1.67-1.55-2.44a2.55,2.55,0,0,1-.63-2.57c.34-2.14,1.41-4.15,1.41-6.34v-9a9,9,0,0,0,1.45-.89V199.17a17.09,17.09,0,0,1-3,2.11ZM389.62,102.66c.12.14.25.26.38.39v23.5l-3-1.95v9.15a28.87,28.87,0,0,1-3,.08V119.9c-.61.59-1.21,1.19-1.78,1.82H381V108.93l-.21,1.11L378,112.56v4a10.5,10.5,0,0,1-2.48-.64l-.52-.22v-7a13,13,0,0,0-3-.23V121.3q-1.5,0-3,0v3.52q-1.48-.43-3-.76v-7.79a17.3,17.3,0,0,0-3-.82v-4.32a19.26,19.26,0,0,0-3-1.26v.34c-1-.23-2-.43-3-.58v-4.15q-1.5-.08-3-.06v16l-.22-.14c-.92.42-1.88.81-2.78,1.28v-2.2a16.29,16.29,0,0,0-3-.35v-4.37l-3,0v-8l-3,.08v3.68a9.36,9.36,0,0,0-3,3.63v-3.25a4.58,4.58,0,0,0-.51.94,74,74,0,0,0-2.49,8v23.41q-1.49,2-3,3.94V133.23l-1,1c-.63.66-1.34,1.26-2,1.91V124.9a5.62,5.62,0,0,0-1.59,3.7,6.88,6.88,0,0,1-1.41,3.63v0a51.25,51.25,0,0,1-3,7v12.12c-.74,1.08-1.52,2.15-2.35,3.19-.23.29-.44.59-.65.89v-4.31c-.3.32-.59.65-.9,1a21,21,0,0,0-2.1,2.46v36.62c-1-.47-2-.92-3-1.31v14.45c-1-1-2-1.94-3-2.92V185.89c-1-.1-2-.17-3-.18v7.58c-.42,0-.84-.08-1.26-.11-.58,0-1.16,0-1.74-.06V184.9a17.27,17.27,0,0,1-3,1.66v.59c-1,.64-2,1.27-3,1.86v.25l-3,.9v-2.24h-3v-1.63c-.74.2-1.48.38-2.23.51l-.77.11v5.23c-1,.14-2,.31-3,.51v31.63a14.4,14.4,0,0,1-3,1.21V197.63a10.55,10.55,0,0,0-.56,1.14,13,13,0,0,1-2.44,3.58v3q-1.49,1.6-3,3.19v-18.1c-1,0-2,0-3,0v-2.37l-3,.16v34h.07a9.58,9.58,0,0,1,2.93,1.54v7.48a26.43,26.43,0,0,1-3,1.44v-3.52l-.35.34-2.65,0v-6.4c-1-.29-2-.61-3-.94v12.25c-.28.8-.67,1.56-.89,2.39a11.54,11.54,0,0,0-.24,2.94,41.26,41.26,0,0,0,.29,5.09c.08.67,0,1.47.17,2.11a5.18,5.18,0,0,0,.67,1.43V259l-1,0c-.63,0-1.32.11-2,.2v1.08l-3-.16V249.18l.49.47a8.49,8.49,0,0,0,2.51,1.52V229.1q-1.58,2.38-3,4.86V215.2a25.13,25.13,0,0,1,3-4.64v3.59l.07-.15a29.09,29.09,0,0,0,2-4.73c.36-1.14.6-2.32.89-3.48V189.32a29,29,0,0,1-3-.16v.5c-1-.08-2-.14-3-.18v1.43q-1.5.18-3,.48V186c-1,0-2-.07-3-.08v2.31l-.67-.07a12.87,12.87,0,0,0-2.33.1v-1.74c-1-.17-2-.42-3-.68v1.54q-1.5-.15-3-.37v1.95q-1.5-.17-3-.41v2.08c-1-.14-2-.24-3-.28v-4.55c-1,0-2-.11-3-.2V184c-1-.29-2-.61-3-1v-.47c-1-.26-2-.55-3-.88h0v1.71l-3-1v2.14q-1.32-.49-2.62-1l-.38-.16v3.78c-1-.22-2-.47-3-.75v-3.71c-.59-.16-1.18-.32-1.76-.51a2.81,2.81,0,0,0-1.24,0v-5.41l-.74-.28c-.57,4.19-1.52,7.94-1.49,11.68,0,4,1,7.95,1.55,11.82l.67.76V190.28c.57,1.52,1.05,2.83,1.62,4.09A26.6,26.6,0,0,0,222,197V212.1l-3-1.37v7.79c-1-.12-2-.21-3-.24V176.64l-1-.33-2-.67v1c-1-.49-2-1-3-1.5v1.45a9.5,9.5,0,0,1-2.58-1.28L207,175v6.22q-1.49-.47-3-.88V191.8a18.45,18.45,0,0,0-1.94-2.49,10.37,10.37,0,0,1-1.06-1.4v2c-.53-.69-1-1.38-1.49-2.11q-.78.43-1.51.88v-9.6a12.2,12.2,0,0,1-3,3.7V172.64a16.29,16.29,0,0,0-3,2.62v-3.5a13.94,13.94,0,0,0-3,.45v5.46c-1-.07-2-.11-3-.11v13.9a19.87,19.87,0,0,0-3,6.62v8.1a14.06,14.06,0,0,1-1.41.53l-1.59-.38v.46q-1.48-.46-3-.78V183.48c-1,.25-2,.52-3,.79V183l-1.26,1.15c-.59,0-1.16,0-1.74,0V187a36.2,36.2,0,0,1-3,3.37V243.9c0-.07,0-.14-.07-.21a29.86,29.86,0,0,0-1.28-3.25c-.56-1-1.1-2.07-1.64-3.12V197.49a2.23,2.23,0,0,0,.23-.53,65.89,65.89,0,0,0,1.32-8.25,29.49,29.49,0,0,0,0-3.46c-.55-.46-1.07-.93-1.57-1.42v-15.2a20.1,20.1,0,0,1-3-2v-1.93c-1-1-2-1.95-3-2.91v8.46q1.5-.56,3-1.18h0v15.63a12,12,0,0,0-3,1.27v1.8c-.76.61-1.52,1.29-2.25,2-.24.23.8,1.57,2.25,3.21v-4.58l3,4.16v20.35a2.11,2.11,0,0,0-.27-.29c-.43-.36-1-.54-1.39-.91a2.65,2.65,0,0,1-.68-2.41c.15-.88,1-1.74,1-2.56a5.8,5.8,0,0,0-1.06-2.5c-.2-.35-.42-.69-.64-1v1.15l-.49-.44a30.26,30.26,0,0,1-2.51-2.46V186.66a27.75,27.75,0,0,1-3,.3v15.9l-.1.12a21.79,21.79,0,0,1-2.9,3.52V156.95c-.91-3.51-3.22-6.65-2.32-10l2.32-4.83v-6.44a10.18,10.18,0,0,0-2.28.5l-.72.24v3.45l-.18.06c-.93.36-1.88.69-2.82,1v2c-1,.31-2,.56-3,.85h0v-3.69a16.86,16.86,0,0,1-3,1.82v-7.71c-1,.65-2,1.35-3,2.1v5.25q-1.51.48-3,1v4.16a17.29,17.29,0,0,1-3,1.12v-2.26c-1,.34-2,.69-3,1.09v5.77c-1,.46-2,.91-3,1.34v-2.56a9.51,9.51,0,0,1-1.86.42,6.4,6.4,0,0,0-1.14.25v-4.31q-1.48.84-3,1.61v-.59l-1.42.45-1.58.51v-2.74q-1.53.9-3,1.81v7l-.3.2A32.64,32.64,0,0,0,108,158v.26a30.18,30.18,0,0,0-3,1.83h0q-1.49.52-3,1v-6.72a29.27,29.27,0,0,1-3,.5v-.34c-.74.23-1.47.48-2.21.69l-.79.23v5.86a24.82,24.82,0,0,0-2.41,4l-.59.2v5.23a27,27,0,0,1-3,1.57v-10.8a27.85,27.85,0,0,1-3-.34v.55a31.85,31.85,0,0,1-3-1.31v-5.63l-3-.28v4.38l-.24,0a21.2,21.2,0,0,0-2.76.59v14.27a34,34,0,0,0-3,1.74v-8.74l-2.84-2.58L73.34,160,72,159.14V153.9c.1-.15.19-.3.29-.44a34.16,34.16,0,0,1,2.68-3h0v-1.6A11.19,11.19,0,0,1,77.62,147l.38-.18v-5.46h3v-9.91a17.71,17.71,0,0,1,3,.43v8.73c1,.61,2,1.22,3,1.82V126.17c1-.26,2-.49,3-.68v27.85a26.28,26.28,0,0,1,3-2.64V134.76a28.61,28.61,0,0,1,3-2.07v5a20.13,20.13,0,0,1,3,0V136a24,24,0,0,0,3,.43v.87c1-.49,2-1,3-1.57v-9.15a5.52,5.52,0,0,0,3-.29v13.74c1-.55,2-1.08,3-1.57v-8.94a8.33,8.33,0,0,0,3-.47v5.64a16.51,16.51,0,0,0,3-.9v-3l3-1.59v2.44l3-1.3h0v-3.76l1,.12a2.35,2.35,0,0,0,2,.91v6c.38-.17.76-.34,1.16-.5l1.84-.24v-4.81l3,0v1.7l3-.77v-8a20.17,20.17,0,0,1,3-.62v4.37c1-.31,2-.64,3-1v1.75a27.43,27.43,0,0,1,3-.41v5.9l3-.31V127.6c1-.2,2-.45,3-.73v-1.76q1.5-.31,3-.55V118c1-.18,2-.33,3-.42v2.33a26.22,26.22,0,0,0,3-.4v2.23c1-.37,2-.76,3-1.16v2.72c.25-.19.51-.37.76-.56.73-.57,1.48-1.12,2.24-1.65v-1c1-.53,2-1,3-1.52v5c1-.08,2-.18,3-.31v-7c1,0,2-.06,3-.06v-.33c1-.24,2-.46,3-.67v-.5q1.49-.54,3-1.06V111.7a21.78,21.78,0,0,1,3-.94v2.41c1-.18,2-.33,3-.43v9.77a28.53,28.53,0,0,0,3,.42v-6.45c.95,0,1.89,0,2.84,0H192v-2.61c1,.12,2,.29,3,.5v-2.47a8.08,8.08,0,0,1,3,.53v-1.5c1,.16,2,.33,3,.55v3.36l3,.47v10.07l.42.07c.87.17,1.72.36,2.58.56v-6.47a4.88,4.88,0,0,1,2.61.75,4.05,4.05,0,0,0,.39.26v-2.93c1,.29,2,.58,3,.81V115.7a7.34,7.34,0,0,1,1.92.49,11.28,11.28,0,0,0,1.08.39v-2.36c1,.16,2,.36,3,.54V117c1-.06,2-.11,3-.13v10.76h2.86l.14,0v-3.63a19,19,0,0,0,3-.12v-3.74l3,0V117.6h1.3c0-1.17-.28-2.28.08-3.12A5.61,5.61,0,0,1,234,112.7v1.48a21.79,21.79,0,0,0,3,.72v1.88c1,0,2,.06,3,.05v8.25h3v-3.7l.68,0H246v-7.24c-1-1.54-1.94-3-3-4.4v6.37a18.61,18.61,0,0,1-3-4v-3.06l-.16,0c-3.73-6.42-2.58-11.37.16-16.8v5.39c.41-1.19.82-2.36,1.2-3.53s-.41-2.53-.78-4.39l2.58-.91V99.69a15.55,15.55,0,0,1,2.54-4.34l-1.65-4.55L246,89.56v3l2.7-2.25.3-2.37V75.75c1-1.39,2-2.76,3-4.17V68.91c1-1.25,2-2.46,3-3.63V63.82c.32-.38.63-.76,1-1.12.65-.69,1.33-1.39,2-2.06v3.08a32.82,32.82,0,0,1,3-2.37V60.25q1.47-1.25,3-2.47v3.68c1-.81,2-1.6,3-2.41V56.37c1-.66,2-1.3,3-1.93v-.66h2.27L273,53v-.11l3-1.28V46.56c-.69-1.08-1.18-2.33-2.27-2.94L273,39.18v5.44a24.76,24.76,0,0,1-.92-9.78l.92-.48V32.71l3-1.29v2.93a24.65,24.65,0,0,1,3-1.09V30.42l1.62-.71H282V31a17.9,17.9,0,0,1,3-.14V29.74l3-.43,0,0v.46h0l3,4.36v-2.3a17.56,17.56,0,0,0,1.27,2.36,15.64,15.64,0,0,0,1.73,2.1v3.84l0,0,0,.17v7.69a16.32,16.32,0,0,1,0,2v.68l-1.48,1.83a15.06,15.06,0,0,0-1.52.26v.65a11.48,11.48,0,0,1-3,1.94v.11l-2.86,1.12c.06,2-.67,4.37,1.11,6.6.51.64.09,2,.07,3.08a.85.85,0,0,1-.17.55A4.08,4.08,0,0,0,285,69V66.06a.7.7,0,0,1-.19.39c-2.55,2.11-.29,5.08-1.89,7.52-1.18,1.8-.5,4.81-.67,7.53L282,82v.23c0,.19-.05.38-.07.57l.07.06v5.94c1,.93,2,1.79,3,2.64v0a7.74,7.74,0,0,0,1.75.81,5.57,5.57,0,0,1,1.25.57V99a19.08,19.08,0,0,0,3,.81V97.61a21.38,21.38,0,0,0,2.49,1.64l.51-.36v-.28l2.36,1.34c.21,0,.42,0,.64-.06V95a16.57,16.57,0,0,0,3,1.39v2l2,.5c.34-.63.64-1.33,1-2v2.66a30.09,30.09,0,0,0,3,.25V86.66l3-1v1.08A14.86,14.86,0,0,1,312,85v3.27l-3-.88v4.24h1.59L312,89.78v7.67c1,0,2,0,3,0v0h.39A6.68,6.68,0,0,1,318,95V83.66c.4-.33.78-.69,1.14-1L321,80.79v5.64c.72-1.68,1.16-3.48.44-5.1a5,5,0,0,0-.44-.77v-5.5a22.21,22.21,0,0,0,3-1.13V66.4a13.87,13.87,0,0,1,3,.08V76.7h.62c.8-.5,1.59-1,2.38-1.46V86.17c.88-.08,1.75-.15,2.61-.15H333V78.16l1.48-.76H336V69.46l.09,0q1.46.57,2.91,1.19V68.45h.23A22.34,22.34,0,0,1,342,69v3.57l.33.17c.88.48,1.77.95,2.67,1.41V71.56a13.09,13.09,0,0,1,1.22.8c.58.43,1.18.85,1.78,1.27v6.21h3v-5l3,0v1.62c1,.68,2,1.33,3,1.95V74.9l3,1.79v6.66c.76.67,1.49,1.38,2.19,2.13.26.29.54.56.81.83V83.79q1.56,1.26,3,2.68V87a10.94,10.94,0,0,0,3,2.49v-9.8a12.61,12.61,0,0,1,1.57,1.43A7.51,7.51,0,0,0,372,82.29v4.38q1.53.91,3,1.92v1.7c1,.84,2,1.69,3,2.56v4.22c1,.77,2,1.61,3,2.46v3.29a13.06,13.06,0,0,1,1.89,2.09,16.45,16.45,0,0,0,1.11,1.4h0c.1.12.21.24.3.37l2.7,3.91v-11C387.86,100.59,388.73,101.64,389.62,102.66ZM282.57,57.21c.45,1.23,1.28,3.17,1.84,5.18A20.86,20.86,0,0,1,285,65V55ZM77.35,152.61,75,151.25v8.68a29.79,29.79,0,0,1,2.32-5.54C77.58,153.92,77.35,153.17,77.35,152.61ZM156,164v3.73l.24,0C157.09,166.28,156.64,165.24,156,164Zm26.41,10.51c-.81-.18-1.61-.38-2.41-.58v14.29C181.93,184.2,183.41,179.36,182.41,174.53Zm94.74-86.77L279,89.11V84.42Q278.1,86.1,277.15,87.76ZM276,53.29c.14-.18.29-.33.42-.53l-.42-.38Zm-9,57.94V98.45l-.69.57c-.69,3.86-1.26,7-1.86,10.35Zm3,94-3,2.38v6.27c1,.43,2,.79,3,1.12Zm18-98.11-3-1.44v-4.41a19.63,19.63,0,0,0-3-1.09V96.38l-.6-.23-2.4-1v4.22l-2-.79-1,1.92V96.93l-3-1.18v4.36a20.15,20.15,0,0,1-3-1.53v.8h0c0,.28,0,.56,0,.82v3.68c0,.15,0,.3-.07.44a19.73,19.73,0,0,1-1.73,3.84c.61.22,1.21.45,1.8.69v2.42h3v-1.13l3-.35v2.46l3-.35v0l3-.59v1.26c.57-.06,1.13-.11,1.71-.2s.86-.16,1.29-.25v-3.4c.74,0,1.42-.08,2.1-.14.14,0,.26-.21.9-.87ZM299.9,105a30.23,30.23,0,0,0-2.9-2.38v3.5h2.28ZM351,216.65c1,.76,2,1.54,3,2.37V206.34q-1.47-1.64-3-3.24Zm-270,.74a7.82,7.82,0,0,0,3,.35V201.26l-3-.47Zm164.17,31.22c.27.27.55.53.83.77v-3.51A8.8,8.8,0,0,0,245.17,248.61ZM405,117.15h0v3.78A9.34,9.34,0,0,0,405,117.15ZM369,234.86a5.65,5.65,0,0,1,.39.81c1,2.65-.24,3.26,2.61,3.75V225.89q-1.46-1.65-3-3.22Zm18,1.44v12.39a6.59,6.59,0,0,0,3,.83V236.9l-2-.31A8.07,8.07,0,0,1,387,236.3ZM64,210.57c-.62.84-.58,2.17-1,3.8l3,.51v-6.22A9.8,9.8,0,0,0,64,210.57Zm35-7.74a22.36,22.36,0,0,1-2.65,3.56l-.35.34v10.76c1-.81,2-1.68,3-2.57v-3.66l3-2V191c-1,1.19-2,2.38-3,3.49Zm21-2.42V168a8.14,8.14,0,0,0-3,1.25v19.84q-1.48.8-3,1.55V203.5c1.05-.68,2.07-1.3,3-1.84v.46C118,201.61,119,201,120,200.4ZM63,128.73v10c.65.45,1.31.9,2,1.34a9.38,9.38,0,0,1,1,.8V127.51c-.14-.09-.26-.19-.41-.27Zm57,83.78v11.93l3-1.09V212.81l-2.33-.66Zm93,4.4v-1A1.89,1.89,0,0,0,213,216.91Zm18-2.69a9.11,9.11,0,0,1-2.09-1.43c-.26-.23-.57-.54-.91-.86v10.41c.68.32,1.37.62,2.08.89l.92.37Zm-90-45.3a16.31,16.31,0,0,1-2.11-.57c-.29-.1-.59-.18-.89-.25V169l-3,.18v5.26a20.78,20.78,0,0,1-3,3.69v17.2c1-.35,2-.69,3-.94h0v-1l3-1.41V187l2-3.49c.38.29.69.5,1,.68v-.15q1.5,1.56,3,3.07V173.46a11.41,11.41,0,0,0-3,1.18Zm35,44.7c.36-2.15.82-3.69-.5-5.73a11,11,0,0,0-1.49-1.78v25a4,4,0,0,0,2.86-1.14l.14-.17v-8.62a10.49,10.49,0,0,1-.25-1.51C176.56,217.27,175.62,215.88,176,213.62Z"/></svg>